# xmcd CD database file
#
# Track frame offsets:
#	150
#	12182
#	29227
#	39907
#	53165
#	71802
#	85560
#	102542
#	125735
#	139865
#	157167
#	167885
#
# Disc length: 2387 seconds
#
# Revision: 0
# Processed by: cddbd v1.5PL3 Copyright (c) Steve Scherf et al.
# Submitted via: CDex 1.51
#
DISCID=aa09510c
DTITLE=Disengage - Obsessions Become Phobias
DYEAR=2000
DGENRE=Punk Metal
TTITLE0=Spine Of Teeth
TTITLE1=Every Sunday
TTITLE2=Angel's Night
TTITLE3=Tyrant's Blues
TTITLE4=Exhaust
TTITLE5=Nine Lives In Days
TTITLE6=Tarantella
TTITLE7=Sunstarved
TTITLE8=Promise Keeper
TTITLE9=Grew A Tail
TTITLE10=Girl From Emphysema
TTITLE11=Untitled
EXTD=YEAR: 2000
EXTT0=
EXTT1=
EXTT2=
EXTT3=
EXTT4=
EXTT5=
EXTT6=
EXTT7=
EXTT8=
EXTT9=
EXTT10=
EXTT11=
PLAYORDER=
